{
	"asset":{
		"copyright":"benterre",
		"generator":"Khronos glTF Blender I/O v5.0.21",
		"version":"2.0"
	},
	"scene":0,
	"scenes":[
		{
			"name":"Scene",
			"nodes":[
				0
			]
		}
	],
	"nodes":[
		{
			"mesh":0,
			"name":"BigBen",
			"rotation":[
				0.07849637418985367,
				0.18874120712280273,
				-0.313798189163208,
				0.9272247552871704
			],
			"scale":[
				0.0204689409583807,
				0.02046894282102585,
				0.02046894282102585
			],
			"translation":[
				0.6485334634780884,
				0.8364412188529968,
				0.04457813873887062
			]
		}
	],
	"materials":[
		{
			"doubleSided":true,
			"name":"BigBen_roof",
			"pbrMetallicRoughness":{
				"baseColorFactor":[
					0.010073925368487835,
					0.08857589960098267,
					0.447970449924469,
					1
				],
				"metallicFactor":0
			}
		},
		{
			"doubleSided":true,
			"name":"BigBen_front",
			"pbrMetallicRoughness":{
				"baseColorFactor":[
					0.5096041560173035,
					0.38708311319351196,
					0.04938902705907822,
					1
				],
				"metallicFactor":0
			}
		},
		{
			"doubleSided":true,
			"name":"BigBen_clock_background",
			"pbrMetallicRoughness":{
				"baseColorFactor":[
					0.37468355894088745,
					0.2751578986644745,
					0.02624724805355072,
					1
				],
				"metallicFactor":0,
				"roughnessFactor":0.5
			}
		},
		{
			"doubleSided":true,
			"name":"BigBen_clock_face",
			"pbrMetallicRoughness":{
				"baseColorFactor":[
					0.800000011920929,
					0.800000011920929,
					0.800000011920929,
					1
				],
				"metallicFactor":0,
				"roughnessFactor":0.5
			}
		},
		{
			"doubleSided":true,
			"name":"BigBen_arrow",
			"pbrMetallicRoughness":{
				"baseColorFactor":[
					0,
					0,
					0,
					1
				],
				"metallicFactor":0
			}
		},
		{
			"doubleSided":true,
			"name":"TEXT",
			"pbrMetallicRoughness":{
				"metallicFactor":0
			}
		}
	],
	"meshes":[
		{
			"name":"Plane.002",
			"primitives":[
				{
					"attributes":{
						"POSITION":0,
						"NORMAL":1,
						"TEXCOORD_0":2
					},
					"indices":3,
					"material":0
				},
				{
					"attributes":{
						"POSITION":4,
						"NORMAL":5,
						"TEXCOORD_0":6
					},
					"indices":7,
					"material":1
				},
				{
					"attributes":{
						"POSITION":8,
						"NORMAL":9,
						"TEXCOORD_0":10
					},
					"indices":11,
					"material":2
				},
				{
					"attributes":{
						"POSITION":12,
						"NORMAL":13,
						"TEXCOORD_0":14
					},
					"indices":15,
					"material":3
				},
				{
					"attributes":{
						"POSITION":16,
						"NORMAL":17,
						"TEXCOORD_0":18
					},
					"indices":19,
					"material":4
				},
				{
					"attributes":{
						"POSITION":20,
						"NORMAL":21,
						"TEXCOORD_0":22
					},
					"indices":23,
					"material":5
				}
			]
		}
	],
	"accessors":[
		{
			"bufferView":0,
			"componentType":5126,
			"count":48,
			"max":[
				0.7536384463310242,
				8.959903717041016,
				0.7536402344703674
			],
			"min":[
				-0.7536422610282898,
				6.422086715698242,
				-0.7536404728889465
			],
			"type":"VEC3"
		},
		{
			"bufferView":1,
			"componentType":5126,
			"count":48,
			"type":"VEC3"
		},
		{
			"bufferView":2,
			"componentType":5126,
			"count":48,
			"type":"VEC2"
		},
		{
			"bufferView":3,
			"componentType":5123,
			"count":96,
			"type":"SCALAR"
		},
		{
			"bufferView":4,
			"componentType":5126,
			"count":3042,
			"max":[
				1.0355252027511597,
				9.156267166137695,
				1.0355274677276611
			],
			"min":[
				-1.0355291366577148,
				0,
				-1.0355271100997925
			],
			"type":"VEC3"
		},
		{
			"bufferView":5,
			"componentType":5126,
			"count":3042,
			"type":"VEC3"
		},
		{
			"bufferView":6,
			"componentType":5126,
			"count":3042,
			"type":"VEC2"
		},
		{
			"bufferView":7,
			"componentType":5123,
			"count":5904,
			"type":"SCALAR"
		},
		{
			"bufferView":8,
			"componentType":5126,
			"count":16,
			"max":[
				1.0002671480178833,
				5.6766228675842285,
				1.0002681016921997
			],
			"min":[
				-1.0002690553665161,
				4.554664134979248,
				-1.0002683401107788
			],
			"type":"VEC3"
		},
		{
			"bufferView":9,
			"componentType":5126,
			"count":16,
			"type":"VEC3"
		},
		{
			"bufferView":10,
			"componentType":5126,
			"count":16,
			"type":"VEC2"
		},
		{
			"bufferView":11,
			"componentType":5123,
			"count":24,
			"type":"SCALAR"
		},
		{
			"bufferView":12,
			"componentType":5126,
			"count":128,
			"max":[
				1.0355252027511597,
				5.643009185791016,
				1.0355274677276611
			],
			"min":[
				-1.0355291366577148,
				4.598387718200684,
				-1.0355271100997925
			],
			"type":"VEC3"
		},
		{
			"bufferView":13,
			"componentType":5126,
			"count":128,
			"type":"VEC3"
		},
		{
			"bufferView":14,
			"componentType":5126,
			"count":128,
			"type":"VEC2"
		},
		{
			"bufferView":15,
			"componentType":5123,
			"count":360,
			"type":"SCALAR"
		},
		{
			"bufferView":16,
			"componentType":5126,
			"count":192,
			"max":[
				1.0749071836471558,
				5.57435417175293,
				1.0746400356292725
			],
			"min":[
				-1.0785168409347534,
				5.033348083496094,
				-1.075478196144104
			],
			"type":"VEC3"
		},
		{
			"bufferView":17,
			"componentType":5126,
			"count":192,
			"type":"VEC3"
		},
		{
			"bufferView":18,
			"componentType":5126,
			"count":192,
			"type":"VEC2"
		},
		{
			"bufferView":19,
			"componentType":5123,
			"count":288,
			"type":"SCALAR"
		},
		{
			"bufferView":20,
			"componentType":5126,
			"count":1451,
			"max":[
				1.784581184387207,
				9.367600440979004,
				9.883472442626953
			],
			"min":[
				-10.342949867248535,
				5.442556381225586,
				-12.352754592895508
			],
			"type":"VEC3"
		},
		{
			"bufferView":21,
			"componentType":5126,
			"count":1451,
			"type":"VEC3"
		},
		{
			"bufferView":22,
			"componentType":5126,
			"count":1451,
			"type":"VEC2"
		},
		{
			"bufferView":23,
			"componentType":5123,
			"count":3432,
			"type":"SCALAR"
		}
	],
	"bufferViews":[
		{
			"buffer":0,
			"byteLength":576,
			"byteOffset":0,
			"target":34962
		},
		{
			"buffer":0,
			"byteLength":576,
			"byteOffset":576,
			"target":34962
		},
		{
			"buffer":0,
			"byteLength":384,
			"byteOffset":1152,
			"target":34962
		},
		{
			"buffer":0,
			"byteLength":192,
			"byteOffset":1536,
			"target":34963
		},
		{
			"buffer":0,
			"byteLength":36504,
			"byteOffset":1728,
			"target":34962
		},
		{
			"buffer":0,
			"byteLength":36504,
			"byteOffset":38232,
			"target":34962
		},
		{
			"buffer":0,
			"byteLength":24336,
			"byteOffset":74736,
			"target":34962
		},
		{
			"buffer":0,
			"byteLength":11808,
			"byteOffset":99072,
			"target":34963
		},
		{
			"buffer":0,
			"byteLength":192,
			"byteOffset":110880,
			"target":34962
		},
		{
			"buffer":0,
			"byteLength":192,
			"byteOffset":111072,
			"target":34962
		},
		{
			"buffer":0,
			"byteLength":128,
			"byteOffset":111264,
			"target":34962
		},
		{
			"buffer":0,
			"byteLength":48,
			"byteOffset":111392,
			"target":34963
		},
		{
			"buffer":0,
			"byteLength":1536,
			"byteOffset":111440,
			"target":34962
		},
		{
			"buffer":0,
			"byteLength":1536,
			"byteOffset":112976,
			"target":34962
		},
		{
			"buffer":0,
			"byteLength":1024,
			"byteOffset":114512,
			"target":34962
		},
		{
			"buffer":0,
			"byteLength":720,
			"byteOffset":115536,
			"target":34963
		},
		{
			"buffer":0,
			"byteLength":2304,
			"byteOffset":116256,
			"target":34962
		},
		{
			"buffer":0,
			"byteLength":2304,
			"byteOffset":118560,
			"target":34962
		},
		{
			"buffer":0,
			"byteLength":1536,
			"byteOffset":120864,
			"target":34962
		},
		{
			"buffer":0,
			"byteLength":576,
			"byteOffset":122400,
			"target":34963
		},
		{
			"buffer":0,
			"byteLength":17412,
			"byteOffset":122976,
			"target":34962
		},
		{
			"buffer":0,
			"byteLength":17412,
			"byteOffset":140388,
			"target":34962
		},
		{
			"buffer":0,
			"byteLength":11608,
			"byteOffset":157800,
			"target":34962
		},
		{
			"buffer":0,
			"byteLength":6864,
			"byteOffset":169408,
			"target":34963
		}
	],
	"buffers":[
		{
			"byteLength":176272,
			"uri":"BigBen.bin"
		}
	]
}
