{
	"asset":{
		"copyright":"benterre",
		"generator":"Khronos glTF Blender I/O v5.0.21",
		"version":"2.0"
	},
	"scene":0,
	"scenes":[
		{
			"name":"Scene",
			"nodes":[
				0
			]
		}
	],
	"nodes":[
		{
			"mesh":0,
			"name":"Earth"
		}
	],
	"materials":[
		{
			"doubleSided":true,
			"name":"Water",
			"pbrMetallicRoughness":{
				"baseColorFactor":[
					0.08417770266532898,
					0.41498684883117676,
					0.8000156879425049,
					1
				],
				"metallicFactor":0.21472392976284027,
				"roughnessFactor":0.24233129620552063
			}
		},
		{
			"doubleSided":true,
			"name":"Crust",
			"pbrMetallicRoughness":{
				"baseColorFactor":[
					0.8000074625015259,
					0.5289000868797302,
					0.2355814427137375,
					1
				],
				"metallicFactor":0,
				"roughnessFactor":0.3742331564426422
			}
		},
		{
			"doubleSided":true,
			"name":"Ice",
			"pbrMetallicRoughness":{
				"baseColorFactor":[
					0.800000011920929,
					0.800000011920929,
					0.800000011920929,
					1
				],
				"metallicFactor":0,
				"roughnessFactor":0.8251533508300781
			}
		},
		{
			"doubleSided":true,
			"name":"Greenery",
			"pbrMetallicRoughness":{
				"baseColorFactor":[
					0.04131938889622688,
					0.3089091181755066,
					0.04285334795713425,
					1
				],
				"metallicFactor":0,
				"roughnessFactor":0.5
			}
		},
		{
			"doubleSided":true,
			"name":"Sand",
			"pbrMetallicRoughness":{
				"baseColorFactor":[
					0.863650918006897,
					0.5063519477844238,
					0.04325054585933685,
					1
				],
				"metallicFactor":0,
				"roughnessFactor":0.5
			}
		},
		{
			"doubleSided":true,
			"name":"trunk",
			"pbrMetallicRoughness":{
				"baseColorFactor":[
					0.15743616223335266,
					0.0974774956703186,
					0.011469054967164993,
					1
				],
				"metallicFactor":0
			}
		},
		{
			"doubleSided":true,
			"name":"leaves",
			"pbrMetallicRoughness":{
				"baseColorFactor":[
					0.03779040277004242,
					0.1639595329761505,
					0.021696506068110466,
					1
				],
				"metallicFactor":0,
				"roughnessFactor":0.5
			}
		},
		{
			"doubleSided":true,
			"name":"Water_top",
			"pbrMetallicRoughness":{
				"baseColorFactor":[
					0.08349455893039703,
					0.6143061518669128,
					1,
					1
				],
				"metallicFactor":0,
				"roughnessFactor":0.4110429584980011
			}
		},
		{
			"doubleSided":true,
			"name":"Pyramids",
			"pbrMetallicRoughness":{
				"baseColorFactor":[
					0.2901437282562256,
					0.14854860305786133,
					0.0030391698237508535,
					1
				],
				"metallicFactor":0
			}
		},
		{
			"doubleSided":true,
			"name":"Pyramid_top",
			"pbrMetallicRoughness":{
				"baseColorFactor":[
					0.6109112501144409,
					0.3605092167854309,
					0.04501088336110115,
					1
				],
				"metallicFactor":0,
				"roughnessFactor":0.5
			}
		},
		{
			"doubleSided":true,
			"name":"Fujiground",
			"pbrMetallicRoughness":{
				"baseColorFactor":[
					0.0743594765663147,
					0.19492439925670624,
					0.8000074625015259,
					1
				],
				"metallicFactor":0
			}
		},
		{
			"doubleSided":true,
			"name":"Sakura_leaves",
			"pbrMetallicRoughness":{
				"baseColorFactor":[
					0.8000074625015259,
					0.16990810632705688,
					0.7878670692443848,
					1
				],
				"metallicFactor":0
			}
		},
		{
			"doubleSided":true,
			"name":"Durston",
			"pbrMetallicRoughness":{
				"baseColorFactor":[
					0.1974266767501831,
					0.2228775918483734,
					0.34341466426849365,
					1
				],
				"metallicFactor":0,
				"roughnessFactor":0.5
			}
		},
		{
			"doubleSided":true,
			"name":"Durston_inner",
			"pbrMetallicRoughness":{
				"baseColorFactor":[
					0.08622972667217255,
					0.08622972667217255,
					0.08622972667217255,
					1
				],
				"metallicFactor":0,
				"roughnessFactor":0.5
			}
		}
	],
	"meshes":[
		{
			"name":"Icosphere.001",
			"primitives":[
				{
					"attributes":{
						"POSITION":0,
						"NORMAL":1,
						"TEXCOORD_0":2
					},
					"indices":3,
					"material":0
				},
				{
					"attributes":{
						"POSITION":4,
						"NORMAL":5,
						"TEXCOORD_0":6
					},
					"indices":7,
					"material":1
				},
				{
					"attributes":{
						"POSITION":8,
						"NORMAL":9,
						"TEXCOORD_0":10
					},
					"indices":11,
					"material":2
				},
				{
					"attributes":{
						"POSITION":12,
						"NORMAL":13,
						"TEXCOORD_0":14
					},
					"indices":15,
					"material":3
				},
				{
					"attributes":{
						"POSITION":16,
						"NORMAL":17,
						"TEXCOORD_0":18
					},
					"indices":19,
					"material":4
				},
				{
					"attributes":{
						"POSITION":20,
						"NORMAL":21,
						"TEXCOORD_0":22
					},
					"indices":23,
					"material":5
				},
				{
					"attributes":{
						"POSITION":24,
						"NORMAL":25,
						"TEXCOORD_0":26
					},
					"indices":27,
					"material":6
				},
				{
					"attributes":{
						"POSITION":28,
						"NORMAL":29,
						"TEXCOORD_0":30
					},
					"indices":31,
					"material":7
				},
				{
					"attributes":{
						"POSITION":32,
						"NORMAL":33,
						"TEXCOORD_0":34
					},
					"indices":35,
					"material":8
				},
				{
					"attributes":{
						"POSITION":36,
						"NORMAL":37,
						"TEXCOORD_0":38
					},
					"indices":39,
					"material":9
				},
				{
					"attributes":{
						"POSITION":40,
						"NORMAL":41,
						"TEXCOORD_0":42
					},
					"indices":43,
					"material":10
				},
				{
					"attributes":{
						"POSITION":44,
						"NORMAL":45,
						"TEXCOORD_0":46
					},
					"indices":47,
					"material":11
				},
				{
					"attributes":{
						"POSITION":48,
						"NORMAL":49,
						"TEXCOORD_0":50
					},
					"indices":51,
					"material":12
				},
				{
					"attributes":{
						"POSITION":52,
						"NORMAL":53,
						"TEXCOORD_0":54
					},
					"indices":55,
					"material":13
				}
			]
		}
	],
	"accessors":[
		{
			"bufferView":0,
			"componentType":5126,
			"count":10821,
			"max":[
				1,
				1,
				0.9999999403953552
			],
			"min":[
				-0.9999999403953552,
				-0.9829443097114563,
				-0.9999999403953552
			],
			"type":"VEC3"
		},
		{
			"bufferView":1,
			"componentType":5126,
			"count":10821,
			"type":"VEC3"
		},
		{
			"bufferView":2,
			"componentType":5126,
			"count":10821,
			"type":"VEC2"
		},
		{
			"bufferView":3,
			"componentType":5123,
			"count":10821,
			"type":"SCALAR"
		},
		{
			"bufferView":4,
			"componentType":5126,
			"count":1664,
			"max":[
				1.0466111898422241,
				1.0272554159164429,
				1.0471872091293335
			],
			"min":[
				-0.9234870076179504,
				-0.8627875447273254,
				-1.0408689975738525
			],
			"type":"VEC3"
		},
		{
			"bufferView":5,
			"componentType":5126,
			"count":1664,
			"type":"VEC3"
		},
		{
			"bufferView":6,
			"componentType":5126,
			"count":1664,
			"type":"VEC2"
		},
		{
			"bufferView":7,
			"componentType":5123,
			"count":2544,
			"type":"SCALAR"
		},
		{
			"bufferView":8,
			"componentType":5126,
			"count":1408,
			"max":[
				0.3554590046405792,
				1.0369707345962524,
				0.9318208694458008
			],
			"min":[
				-0.6981202363967896,
				-1.059999942779541,
				-1.0160863399505615
			],
			"type":"VEC3"
		},
		{
			"bufferView":9,
			"componentType":5126,
			"count":1408,
			"type":"VEC3"
		},
		{
			"bufferView":10,
			"componentType":5126,
			"count":1408,
			"type":"VEC2"
		},
		{
			"bufferView":11,
			"componentType":5123,
			"count":1614,
			"type":"SCALAR"
		},
		{
			"bufferView":12,
			"componentType":5126,
			"count":4481,
			"max":[
				1.0565558671951294,
				1.0151242017745972,
				1.050663948059082
			],
			"min":[
				-0.9320932626724243,
				-0.8708016276359558,
				-1.050742745399475
			],
			"type":"VEC3"
		},
		{
			"bufferView":13,
			"componentType":5126,
			"count":4481,
			"type":"VEC3"
		},
		{
			"bufferView":14,
			"componentType":5126,
			"count":4481,
			"type":"VEC2"
		},
		{
			"bufferView":15,
			"componentType":5123,
			"count":5157,
			"type":"SCALAR"
		},
		{
			"bufferView":16,
			"componentType":5126,
			"count":794,
			"max":[
				1.038785457611084,
				0.7386304140090942,
				0.2978091835975647
			],
			"min":[
				-0.1722162812948227,
				0.20357096195220947,
				-0.9433813691139221
			],
			"type":"VEC3"
		},
		{
			"bufferView":17,
			"componentType":5126,
			"count":794,
			"type":"VEC3"
		},
		{
			"bufferView":18,
			"componentType":5126,
			"count":794,
			"type":"VEC2"
		},
		{
			"bufferView":19,
			"componentType":5123,
			"count":864,
			"type":"SCALAR"
		},
		{
			"bufferView":20,
			"componentType":5126,
			"count":13508,
			"max":[
				1.0640571117401123,
				1.0042450428009033,
				1.0490273237228394
			],
			"min":[
				-0.8802980780601501,
				-0.8326101303100586,
				-1.0558745861053467
			],
			"type":"VEC3"
		},
		{
			"bufferView":21,
			"componentType":5126,
			"count":13508,
			"type":"VEC3"
		},
		{
			"bufferView":22,
			"componentType":5126,
			"count":13508,
			"type":"VEC2"
		},
		{
			"bufferView":23,
			"componentType":5123,
			"count":22266,
			"type":"SCALAR"
		},
		{
			"bufferView":24,
			"componentType":5126,
			"count":54936,
			"max":[
				1.0963467359542847,
				1.0359619855880737,
				1.0845661163330078
			],
			"min":[
				-0.9167505502700806,
				-0.8552212119102478,
				-1.092307686805725
			],
			"type":"VEC3"
		},
		{
			"bufferView":25,
			"componentType":5126,
			"count":54936,
			"type":"VEC3"
		},
		{
			"bufferView":26,
			"componentType":5126,
			"count":54936,
			"type":"VEC2"
		},
		{
			"bufferView":27,
			"componentType":5123,
			"count":84366,
			"type":"SCALAR"
		},
		{
			"bufferView":28,
			"componentType":5126,
			"count":960,
			"max":[
				1.0499999523162842,
				1.0499999523162842,
				1.0499999523162842
			],
			"min":[
				-1.0499999523162842,
				-1.0499999523162842,
				-1.0499999523162842
			],
			"type":"VEC3"
		},
		{
			"bufferView":29,
			"componentType":5126,
			"count":960,
			"type":"VEC3"
		},
		{
			"bufferView":30,
			"componentType":5126,
			"count":960,
			"type":"VEC2"
		},
		{
			"bufferView":31,
			"componentType":5123,
			"count":960,
			"type":"SCALAR"
		},
		{
			"bufferView":32,
			"componentType":5126,
			"count":32,
			"max":[
				0.9128440022468567,
				0.4910789430141449,
				-0.3633994460105896
			],
			"min":[
				0.8165233731269836,
				0.394378662109375,
				-0.4700942039489746
			],
			"type":"VEC3"
		},
		{
			"bufferView":33,
			"componentType":5126,
			"count":32,
			"type":"VEC3"
		},
		{
			"bufferView":34,
			"componentType":5126,
			"count":32,
			"type":"VEC2"
		},
		{
			"bufferView":35,
			"componentType":5123,
			"count":36,
			"type":"SCALAR"
		},
		{
			"bufferView":36,
			"componentType":5126,
			"count":16,
			"max":[
				0.914147675037384,
				0.4581072926521301,
				-0.4019593894481659
			],
			"min":[
				0.8926435112953186,
				0.4359610378742218,
				-0.42613646388053894
			],
			"type":"VEC3"
		},
		{
			"bufferView":37,
			"componentType":5126,
			"count":16,
			"type":"VEC3"
		},
		{
			"bufferView":38,
			"componentType":5126,
			"count":16,
			"type":"VEC2"
		},
		{
			"bufferView":39,
			"componentType":5123,
			"count":18,
			"type":"SCALAR"
		},
		{
			"bufferView":40,
			"componentType":5126,
			"count":260,
			"max":[
				-0.6137712001800537,
				0.6808982491493225,
				-0.4945879280567169
			],
			"min":[
				-0.6936466693878174,
				0.60087651014328,
				-0.5817124247550964
			],
			"type":"VEC3"
		},
		{
			"bufferView":41,
			"componentType":5126,
			"count":260,
			"type":"VEC3"
		},
		{
			"bufferView":42,
			"componentType":5126,
			"count":260,
			"type":"VEC2"
		},
		{
			"bufferView":43,
			"componentType":5123,
			"count":294,
			"type":"SCALAR"
		},
		{
			"bufferView":44,
			"componentType":5126,
			"count":1620,
			"max":[
				-0.6247521638870239,
				0.7260467410087585,
				-0.4827474057674408
			],
			"min":[
				-0.6761714816093445,
				0.5922558307647705,
				-0.6250627040863037
			],
			"type":"VEC3"
		},
		{
			"bufferView":45,
			"componentType":5126,
			"count":1620,
			"type":"VEC3"
		},
		{
			"bufferView":46,
			"componentType":5126,
			"count":1620,
			"type":"VEC2"
		},
		{
			"bufferView":47,
			"componentType":5123,
			"count":1620,
			"type":"SCALAR"
		},
		{
			"bufferView":48,
			"componentType":5126,
			"count":20,
			"max":[
				-0.30889052152633667,
				0.5890466570854187,
				0.8727556467056274
			],
			"min":[
				-0.36362379789352417,
				0.540283739566803,
				0.8356444835662842
			],
			"type":"VEC3"
		},
		{
			"bufferView":49,
			"componentType":5126,
			"count":20,
			"type":"VEC3"
		},
		{
			"bufferView":50,
			"componentType":5126,
			"count":20,
			"type":"VEC2"
		},
		{
			"bufferView":51,
			"componentType":5123,
			"count":24,
			"type":"SCALAR"
		},
		{
			"bufferView":52,
			"componentType":5126,
			"count":16,
			"max":[
				-0.32055288553237915,
				0.5890466570854187,
				0.8727556467056274
			],
			"min":[
				-0.35248351097106934,
				0.540283739566803,
				0.8356444835662842
			],
			"type":"VEC3"
		},
		{
			"bufferView":53,
			"componentType":5126,
			"count":16,
			"type":"VEC3"
		},
		{
			"bufferView":54,
			"componentType":5126,
			"count":16,
			"type":"VEC2"
		},
		{
			"bufferView":55,
			"componentType":5123,
			"count":18,
			"type":"SCALAR"
		}
	],
	"bufferViews":[
		{
			"buffer":0,
			"byteLength":129852,
			"byteOffset":0,
			"target":34962
		},
		{
			"buffer":0,
			"byteLength":129852,
			"byteOffset":129852,
			"target":34962
		},
		{
			"buffer":0,
			"byteLength":86568,
			"byteOffset":259704,
			"target":34962
		},
		{
			"buffer":0,
			"byteLength":21642,
			"byteOffset":346272,
			"target":34963
		},
		{
			"buffer":0,
			"byteLength":19968,
			"byteOffset":367916,
			"target":34962
		},
		{
			"buffer":0,
			"byteLength":19968,
			"byteOffset":387884,
			"target":34962
		},
		{
			"buffer":0,
			"byteLength":13312,
			"byteOffset":407852,
			"target":34962
		},
		{
			"buffer":0,
			"byteLength":5088,
			"byteOffset":421164,
			"target":34963
		},
		{
			"buffer":0,
			"byteLength":16896,
			"byteOffset":426252,
			"target":34962
		},
		{
			"buffer":0,
			"byteLength":16896,
			"byteOffset":443148,
			"target":34962
		},
		{
			"buffer":0,
			"byteLength":11264,
			"byteOffset":460044,
			"target":34962
		},
		{
			"buffer":0,
			"byteLength":3228,
			"byteOffset":471308,
			"target":34963
		},
		{
			"buffer":0,
			"byteLength":53772,
			"byteOffset":474536,
			"target":34962
		},
		{
			"buffer":0,
			"byteLength":53772,
			"byteOffset":528308,
			"target":34962
		},
		{
			"buffer":0,
			"byteLength":35848,
			"byteOffset":582080,
			"target":34962
		},
		{
			"buffer":0,
			"byteLength":10314,
			"byteOffset":617928,
			"target":34963
		},
		{
			"buffer":0,
			"byteLength":9528,
			"byteOffset":628244,
			"target":34962
		},
		{
			"buffer":0,
			"byteLength":9528,
			"byteOffset":637772,
			"target":34962
		},
		{
			"buffer":0,
			"byteLength":6352,
			"byteOffset":647300,
			"target":34962
		},
		{
			"buffer":0,
			"byteLength":1728,
			"byteOffset":653652,
			"target":34963
		},
		{
			"buffer":0,
			"byteLength":162096,
			"byteOffset":655380,
			"target":34962
		},
		{
			"buffer":0,
			"byteLength":162096,
			"byteOffset":817476,
			"target":34962
		},
		{
			"buffer":0,
			"byteLength":108064,
			"byteOffset":979572,
			"target":34962
		},
		{
			"buffer":0,
			"byteLength":44532,
			"byteOffset":1087636,
			"target":34963
		},
		{
			"buffer":0,
			"byteLength":659232,
			"byteOffset":1132168,
			"target":34962
		},
		{
			"buffer":0,
			"byteLength":659232,
			"byteOffset":1791400,
			"target":34962
		},
		{
			"buffer":0,
			"byteLength":439488,
			"byteOffset":2450632,
			"target":34962
		},
		{
			"buffer":0,
			"byteLength":168732,
			"byteOffset":2890120,
			"target":34963
		},
		{
			"buffer":0,
			"byteLength":11520,
			"byteOffset":3058852,
			"target":34962
		},
		{
			"buffer":0,
			"byteLength":11520,
			"byteOffset":3070372,
			"target":34962
		},
		{
			"buffer":0,
			"byteLength":7680,
			"byteOffset":3081892,
			"target":34962
		},
		{
			"buffer":0,
			"byteLength":1920,
			"byteOffset":3089572,
			"target":34963
		},
		{
			"buffer":0,
			"byteLength":384,
			"byteOffset":3091492,
			"target":34962
		},
		{
			"buffer":0,
			"byteLength":384,
			"byteOffset":3091876,
			"target":34962
		},
		{
			"buffer":0,
			"byteLength":256,
			"byteOffset":3092260,
			"target":34962
		},
		{
			"buffer":0,
			"byteLength":72,
			"byteOffset":3092516,
			"target":34963
		},
		{
			"buffer":0,
			"byteLength":192,
			"byteOffset":3092588,
			"target":34962
		},
		{
			"buffer":0,
			"byteLength":192,
			"byteOffset":3092780,
			"target":34962
		},
		{
			"buffer":0,
			"byteLength":128,
			"byteOffset":3092972,
			"target":34962
		},
		{
			"buffer":0,
			"byteLength":36,
			"byteOffset":3093100,
			"target":34963
		},
		{
			"buffer":0,
			"byteLength":3120,
			"byteOffset":3093136,
			"target":34962
		},
		{
			"buffer":0,
			"byteLength":3120,
			"byteOffset":3096256,
			"target":34962
		},
		{
			"buffer":0,
			"byteLength":2080,
			"byteOffset":3099376,
			"target":34962
		},
		{
			"buffer":0,
			"byteLength":588,
			"byteOffset":3101456,
			"target":34963
		},
		{
			"buffer":0,
			"byteLength":19440,
			"byteOffset":3102044,
			"target":34962
		},
		{
			"buffer":0,
			"byteLength":19440,
			"byteOffset":3121484,
			"target":34962
		},
		{
			"buffer":0,
			"byteLength":12960,
			"byteOffset":3140924,
			"target":34962
		},
		{
			"buffer":0,
			"byteLength":3240,
			"byteOffset":3153884,
			"target":34963
		},
		{
			"buffer":0,
			"byteLength":240,
			"byteOffset":3157124,
			"target":34962
		},
		{
			"buffer":0,
			"byteLength":240,
			"byteOffset":3157364,
			"target":34962
		},
		{
			"buffer":0,
			"byteLength":160,
			"byteOffset":3157604,
			"target":34962
		},
		{
			"buffer":0,
			"byteLength":48,
			"byteOffset":3157764,
			"target":34963
		},
		{
			"buffer":0,
			"byteLength":192,
			"byteOffset":3157812,
			"target":34962
		},
		{
			"buffer":0,
			"byteLength":192,
			"byteOffset":3158004,
			"target":34962
		},
		{
			"buffer":0,
			"byteLength":128,
			"byteOffset":3158196,
			"target":34962
		},
		{
			"buffer":0,
			"byteLength":36,
			"byteOffset":3158324,
			"target":34963
		}
	],
	"buffers":[
		{
			"byteLength":3158360,
			"uri":"earth.bin"
		}
	]
}
