{
	"asset":{
		"copyright":"benterre",
		"generator":"Khronos glTF Blender I/O v5.0.21",
		"version":"2.0"
	},
	"scene":0,
	"scenes":[
		{
			"name":"Scene",
			"nodes":[
				0
			]
		}
	],
	"nodes":[
		{
			"mesh":0,
			"name":"Ulsan",
			"rotation":[
				0.014494168572127819,
				-0.8015148043632507,
				0.41308099031448364,
				0.4321207106113434
			],
			"scale":[
				0.04828867316246033,
				0.0635049119591713,
				0.04828867316246033
			],
			"translation":[
				-0.5106069445610046,
				0.6547045111656189,
				-0.667650043964386
			]
		}
	],
	"materials":[
		{
			"doubleSided":true,
			"name":"Ice",
			"pbrMetallicRoughness":{
				"baseColorFactor":[
					0.800000011920929,
					0.800000011920929,
					0.800000011920929,
					1
				],
				"metallicFactor":0,
				"roughnessFactor":0.8251533508300781
			}
		},
		{
			"doubleSided":true,
			"name":"Greenery",
			"pbrMetallicRoughness":{
				"baseColorFactor":[
					0.04131938889622688,
					0.3089091181755066,
					0.04285334795713425,
					1
				],
				"metallicFactor":0,
				"roughnessFactor":0.5
			}
		},
		{
			"doubleSided":true,
			"name":"Rocks",
			"pbrMetallicRoughness":{
				"baseColorFactor":[
					0.6768829822540283,
					0.4290850758552551,
					0.09173359721899033,
					1
				],
				"metallicFactor":0,
				"roughnessFactor":0.5
			}
		},
		{
			"doubleSided":true,
			"name":"TEXT",
			"pbrMetallicRoughness":{
				"metallicFactor":0
			}
		}
	],
	"meshes":[
		{
			"name":"Icosphere.004",
			"primitives":[
				{
					"attributes":{
						"POSITION":0,
						"NORMAL":1,
						"TEXCOORD_0":2
					},
					"indices":3,
					"material":0
				},
				{
					"attributes":{
						"POSITION":4,
						"NORMAL":5,
						"TEXCOORD_0":6
					},
					"indices":7,
					"material":1
				},
				{
					"attributes":{
						"POSITION":8,
						"NORMAL":9,
						"TEXCOORD_0":10
					},
					"indices":11,
					"material":2
				},
				{
					"attributes":{
						"POSITION":12,
						"NORMAL":13,
						"TEXCOORD_0":14
					},
					"indices":15,
					"material":3
				}
			]
		}
	],
	"accessors":[
		{
			"bufferView":0,
			"componentType":5126,
			"count":824,
			"max":[
				0.23292401432991028,
				0.23626060783863068,
				0
			],
			"min":[
				-0.8288507461547852,
				0,
				-0.77962726354599
			],
			"type":"VEC3"
		},
		{
			"bufferView":1,
			"componentType":5126,
			"count":824,
			"type":"VEC3"
		},
		{
			"bufferView":2,
			"componentType":5126,
			"count":824,
			"type":"VEC2"
		},
		{
			"bufferView":3,
			"componentType":5123,
			"count":1344,
			"type":"SCALAR"
		},
		{
			"bufferView":4,
			"componentType":5126,
			"count":47,
			"max":[
				0.9621407985687256,
				0.34890711307525635,
				-0.3207135796546936
			],
			"min":[
				-1.6035678386688232,
				0.10246805101633072,
				-1.4432110786437988
			],
			"type":"VEC3"
		},
		{
			"bufferView":5,
			"componentType":5126,
			"count":47,
			"type":"VEC3"
		},
		{
			"bufferView":6,
			"componentType":5126,
			"count":47,
			"type":"VEC2"
		},
		{
			"bufferView":7,
			"componentType":5123,
			"count":123,
			"type":"SCALAR"
		},
		{
			"bufferView":8,
			"componentType":5126,
			"count":1021,
			"max":[
				2.244995355606079,
				0.38569676876068115,
				1.9242817163467407
			],
			"min":[
				-2.0846383571624756,
				0,
				-1.7639248371124268
			],
			"type":"VEC3"
		},
		{
			"bufferView":9,
			"componentType":5126,
			"count":1021,
			"type":"VEC3"
		},
		{
			"bufferView":10,
			"componentType":5126,
			"count":1021,
			"type":"VEC2"
		},
		{
			"bufferView":11,
			"componentType":5123,
			"count":1407,
			"type":"SCALAR"
		},
		{
			"bufferView":12,
			"componentType":5126,
			"count":574,
			"max":[
				2.961884021759033,
				2.1974711418151855,
				-0.930213451385498
			],
			"min":[
				-1.2385867834091187,
				0.9870193004608154,
				-3.769749164581299
			],
			"type":"VEC3"
		},
		{
			"bufferView":13,
			"componentType":5126,
			"count":574,
			"type":"VEC3"
		},
		{
			"bufferView":14,
			"componentType":5126,
			"count":574,
			"type":"VEC2"
		},
		{
			"bufferView":15,
			"componentType":5123,
			"count":1536,
			"type":"SCALAR"
		}
	],
	"bufferViews":[
		{
			"buffer":0,
			"byteLength":9888,
			"byteOffset":0,
			"target":34962
		},
		{
			"buffer":0,
			"byteLength":9888,
			"byteOffset":9888,
			"target":34962
		},
		{
			"buffer":0,
			"byteLength":6592,
			"byteOffset":19776,
			"target":34962
		},
		{
			"buffer":0,
			"byteLength":2688,
			"byteOffset":26368,
			"target":34963
		},
		{
			"buffer":0,
			"byteLength":564,
			"byteOffset":29056,
			"target":34962
		},
		{
			"buffer":0,
			"byteLength":564,
			"byteOffset":29620,
			"target":34962
		},
		{
			"buffer":0,
			"byteLength":376,
			"byteOffset":30184,
			"target":34962
		},
		{
			"buffer":0,
			"byteLength":246,
			"byteOffset":30560,
			"target":34963
		},
		{
			"buffer":0,
			"byteLength":12252,
			"byteOffset":30808,
			"target":34962
		},
		{
			"buffer":0,
			"byteLength":12252,
			"byteOffset":43060,
			"target":34962
		},
		{
			"buffer":0,
			"byteLength":8168,
			"byteOffset":55312,
			"target":34962
		},
		{
			"buffer":0,
			"byteLength":2814,
			"byteOffset":63480,
			"target":34963
		},
		{
			"buffer":0,
			"byteLength":6888,
			"byteOffset":66296,
			"target":34962
		},
		{
			"buffer":0,
			"byteLength":6888,
			"byteOffset":73184,
			"target":34962
		},
		{
			"buffer":0,
			"byteLength":4592,
			"byteOffset":80072,
			"target":34962
		},
		{
			"buffer":0,
			"byteLength":3072,
			"byteOffset":84664,
			"target":34963
		}
	],
	"buffers":[
		{
			"byteLength":87736,
			"uri":"Ulsan.bin"
		}
	]
}
